<svg width="24" height="24" viewBox="0 0 24 24" fill="none" xmlns="http://www.w3.org/2000/svg">
<g id="f7:person">
<path id="Vector" d="M12.0051 12.0099C14.3957 12.0099 16.3444 9.88073 16.3444 7.28916C16.3444 4.71773 14.4159 2.69873 12.0051 2.69873C9.62443 2.69873 7.66586 4.75802 7.66586 7.3093C7.67572 9.89059 9.62443 12.0099 12.0051 12.0099ZM12.0051 10.4932C10.5386 10.4932 9.28286 9.08745 9.28286 7.30887C9.28286 5.56159 10.5184 4.21545 12.0051 4.21545C13.5116 4.21545 14.727 5.54144 14.727 7.28916C14.727 9.06687 13.4914 10.4932 12.0051 10.4932ZM5.697 21.3017H18.3133C19.9804 21.3017 20.7741 20.799 20.7741 19.6946C20.7741 17.0623 17.4591 13.2557 12.0051 13.2557C6.55072 13.2557 3.22586 17.0627 3.22586 19.6942C3.22586 20.799 4.01958 21.3017 5.697 21.3017ZM5.21486 19.7842C4.95343 19.7842 4.84329 19.7139 4.84329 19.503C4.84329 17.8556 7.39458 14.7716 12.0047 14.7716C16.6157 14.7716 19.1567 17.8556 19.1567 19.503C19.1567 19.7139 19.0564 19.7842 18.7954 19.7842H5.21486Z" fill="black"/>
</g>
</svg>
