<svg width="24" height="24" viewBox="0 0 24 24" fill="none" xmlns="http://www.w3.org/2000/svg">
<g id="game-icons:round-table">
<path id="Vector" d="M11.8969 1.42676C11.4516 1.48301 11.0484 2.00332 11.0484 2.68301C11.0484 3.05801 11.175 3.38613 11.3625 3.61582L11.5922 3.8877L11.2406 3.95332C10.9969 4.0002 10.8188 4.13145 10.6641 4.34238C10.5047 4.55801 10.3875 4.84676 10.3078 5.18895C10.1578 5.80301 10.125 6.55301 10.1203 7.21863H10.9406L11.0156 8.24519C11.3344 8.23113 11.6625 8.22176 11.9953 8.22176C12.3469 8.22176 12.6891 8.23113 13.0219 8.24988L13.0922 7.21863H13.8703C13.8703 6.54832 13.8609 5.78426 13.725 5.16082C13.65 4.82332 13.5375 4.52988 13.3828 4.31895C13.2281 4.10801 13.0359 3.98145 12.7594 3.93926L12.4031 3.88301L12.6281 3.60176C12.8109 3.37676 12.9328 3.04863 12.9328 2.68301C12.9328 1.96113 12.4828 1.42676 11.9906 1.42676H11.8969ZM2.90156 8.17488C2.45625 8.23113 2.05312 8.75144 2.05312 9.43113C2.05312 9.80613 2.17969 10.1343 2.36719 10.3639L2.59688 10.6358L2.24531 10.7014C2.00156 10.7483 1.82344 10.8796 1.66875 11.0905C1.50937 11.3061 1.39219 11.5968 1.3125 11.9389C1.1625 12.553 1.12969 13.303 1.125 13.9686H1.94531L2.16563 16.9827C2.7375 17.1139 3.34687 17.1046 3.89719 16.9827L4.09875 13.9686H4.875C4.875 13.2983 4.86563 12.5343 4.72969 11.9108C4.65609 11.5733 4.54359 11.278 4.38891 11.0671C4.23469 10.8561 4.0425 10.7296 3.76594 10.6874L3.40781 10.6311L3.63281 10.3499C3.8175 10.1249 3.93937 9.79676 3.93937 9.43113C3.93937 8.70926 3.4875 8.17488 2.99531 8.17488H2.90156ZM20.9016 8.17488C20.4562 8.23113 20.0531 8.75144 20.0531 9.43113C20.0531 9.80613 20.1797 10.1343 20.3672 10.3639L20.5969 10.6358L20.2453 10.7014C20.0016 10.7483 19.8234 10.8796 19.6688 11.0905C19.5094 11.3061 19.3922 11.5968 19.3125 11.9389C19.1625 12.553 19.1297 13.303 19.125 13.9686H19.9453L20.1656 16.9827C20.7375 17.1139 21.3469 17.1046 21.8953 16.9827L22.0969 13.9686H22.875C22.875 13.2983 22.8656 12.5343 22.7297 11.9108C22.6547 11.5733 22.5422 11.278 22.3875 11.0671C22.2328 10.8561 22.0406 10.7296 21.7641 10.6874L21.4078 10.6311L21.6328 10.3499C21.8156 10.1249 21.9375 9.79676 21.9375 9.43113C21.9375 8.70926 21.4875 8.17488 20.9953 8.17488H20.9016ZM11.9953 9.06551C10.275 9.06551 8.71875 9.31394 7.62656 9.69832C7.08281 9.89051 6.65625 10.1202 6.39375 10.3405C6.12656 10.5608 6.04219 10.7436 6.04219 10.8936C6.04219 11.0436 6.12656 11.2264 6.39375 11.4468C6.65625 11.6671 7.08281 11.8921 7.62656 12.0889C8.71875 12.4733 10.275 12.7218 11.9953 12.7218C13.7156 12.7218 15.2719 12.4733 16.3641 12.0889C16.9078 11.8921 17.3344 11.6671 17.5969 11.4468C17.8641 11.2264 17.9484 11.0436 17.9484 10.8936C17.9484 10.7436 17.8641 10.5608 17.5969 10.3405C17.3344 10.1202 16.9078 9.89051 16.3641 9.69832C15.2719 9.31394 13.7156 9.06551 11.9953 9.06551ZM7.07344 12.778V14.9249H7.91719V13.0593C7.72031 13.003 7.52812 12.9468 7.34531 12.8811C7.25156 12.8483 7.1625 12.8155 7.07344 12.778ZM16.9172 12.778C16.8281 12.8155 16.7391 12.8483 16.6453 12.8811C16.4625 12.9468 16.2703 13.003 16.0734 13.0593V14.9249H16.9172V12.778ZM11.8969 13.6686C11.4516 13.7249 11.0484 14.2452 11.0484 14.9249C11.0484 15.2999 11.175 15.628 11.3625 15.8577L11.5922 16.1296L11.2406 16.1952C10.9969 16.2421 10.8188 16.3733 10.6641 16.5843C10.5047 16.7999 10.3875 17.0905 10.3078 17.4327C10.1578 18.0468 10.125 18.7968 10.1203 19.4624H10.9406L11.1609 22.4764C11.7328 22.6077 12.3422 22.5983 12.8906 22.4764L13.0922 19.4624H13.8703C13.8703 18.7921 13.8609 18.028 13.725 17.4046C13.65 17.0671 13.5375 16.7718 13.3828 16.5608C13.2281 16.3499 13.0359 16.2233 12.7594 16.1811L12.4031 16.1249L12.6281 15.8436C12.8109 15.6186 12.9328 15.2905 12.9328 14.9249C12.9328 14.203 12.4828 13.6686 11.9906 13.6686H11.8969Z" fill="black"/>
</g>
</svg>
