<svg width="24" height="24" viewBox="0 0 24 24" fill="none" xmlns="http://www.w3.org/2000/svg">
<path d="M17 5V3C17 2.73478 16.8946 2.48043 16.7071 2.29289C16.5196 2.10536 16.2652 2 16 2H7C6.73478 2 6.48043 2.10536 6.29289 2.29289C6.10536 2.48043 6 2.73478 6 3V5C4.346 5 3 6.346 3 8V18C3 19.654 4.346 21 6 21H17C18.654 21 20 19.654 20 18V8C20 6.346 18.654 5 17 5ZM8 4H15V9H8V4ZM6 7V10C6 10.2652 6.10536 10.5196 6.29289 10.7071C6.48043 10.8946 6.73478 11 7 11H16C16.2652 11 16.5196 10.8946 16.7071 10.7071C16.8946 10.5196 17 10.2652 17 10V7C17.551 7 18 7.449 18 8V10.5C18 11.327 17.327 12 16.5 12H6.5C5.673 12 5 11.327 5 10.5V8C5 7.449 5.449 7 6 7ZM17 19H6C5.449 19 5 18.551 5 18V12.487C5.419 12.805 5.935 13 6.5 13H16.5C17.065 13 17.581 12.805 18 12.487V18C18 18.551 17.551 19 17 19ZM13.5 7H9.5C9.36739 7 9.24021 7.05268 9.14645 7.14645C9.05268 7.24021 9 7.36739 9 7.5C9 7.63261 9.05268 7.75979 9.14645 7.85355C9.24021 7.94732 9.36739 8 9.5 8H13.5C13.6326 8 13.7598 7.94732 13.8536 7.85355C13.9473 7.75979 14 7.63261 14 7.5C14 7.36739 13.9473 7.24021 13.8536 7.14645C13.7598 7.05268 13.6326 7 13.5 7ZM15 16H8C7.86739 16 7.74021 16.0527 7.64645 16.1464C7.55268 16.2402 7.5 16.3674 7.5 16.5C7.5 16.6326 7.55268 16.7598 7.64645 16.8536C7.74021 16.9473 7.86739 17 8 17H15C15.1326 17 15.2598 16.9473 15.3536 16.8536C15.4473 16.7598 15.5 16.6326 15.5 16.5C15.5 16.3674 15.4473 16.2402 15.3536 16.1464C15.2598 16.0527 15.1326 16 15 16ZM13.5 5H9.5C9.36739 5 9.24021 5.05268 9.14645 5.14645C9.05268 5.24021 9 5.36739 9 5.5C9 5.63261 9.05268 5.75979 9.14645 5.85355C9.24021 5.94732 9.36739 6 9.5 6H13.5C13.6326 6 13.7598 5.94732 13.8536 5.85355C13.9473 5.75979 14 5.63261 14 5.5C14 5.36739 13.9473 5.24021 13.8536 5.14645C13.7598 5.05268 13.6326 5 13.5 5Z" fill="black"/>
</svg>
