<svg width="22" height="22" viewBox="0 0 22 22" fill="none" xmlns="http://www.w3.org/2000/svg">
<path d="M10.8969 0.426758C10.4516 0.483008 10.0484 1.00332 10.0484 1.68301C10.0484 2.05801 10.175 2.38613 10.3625 2.61582L10.5922 2.8877L10.2406 2.95332C9.99687 3.0002 9.81875 3.13145 9.66406 3.34238C9.50469 3.55801 9.3875 3.84676 9.30781 4.18895C9.15781 4.80301 9.125 5.55301 9.12031 6.21863H9.94062L10.0156 7.24519C10.3344 7.23113 10.6625 7.22176 10.9953 7.22176C11.3469 7.22176 11.6891 7.23113 12.0219 7.24988L12.0922 6.21863H12.8703C12.8703 5.54832 12.8609 4.78426 12.725 4.16082C12.65 3.82332 12.5375 3.52988 12.3828 3.31895C12.2281 3.10801 12.0359 2.98145 11.7594 2.93926L11.4031 2.88301L11.6281 2.60176C11.8109 2.37676 11.9328 2.04863 11.9328 1.68301C11.9328 0.961133 11.4828 0.426758 10.9906 0.426758H10.8969ZM1.90156 7.17488C1.45625 7.23113 1.05312 7.75144 1.05312 8.43113C1.05312 8.80613 1.17969 9.13426 1.36719 9.36395L1.59688 9.63582L1.24531 9.70145C1.00156 9.74832 0.823437 9.87957 0.66875 10.0905C0.509375 10.3061 0.392188 10.5968 0.3125 10.9389C0.1625 11.553 0.129688 12.303 0.125 12.9686H0.945312L1.16563 15.9827C1.7375 16.1139 2.34687 16.1046 2.89719 15.9827L3.09875 12.9686H3.875C3.875 12.2983 3.86563 11.5343 3.72969 10.9108C3.65609 10.5733 3.54359 10.278 3.38891 10.0671C3.23469 9.85613 3.0425 9.72957 2.76594 9.68738L2.40781 9.63113L2.63281 9.34988C2.8175 9.12488 2.93937 8.79676 2.93937 8.43113C2.93937 7.70926 2.4875 7.17488 1.99531 7.17488H1.90156ZM19.9016 7.17488C19.4562 7.23113 19.0531 7.75144 19.0531 8.43113C19.0531 8.80613 19.1797 9.13426 19.3672 9.36395L19.5969 9.63582L19.2453 9.70145C19.0016 9.74832 18.8234 9.87957 18.6688 10.0905C18.5094 10.3061 18.3922 10.5968 18.3125 10.9389C18.1625 11.553 18.1297 12.303 18.125 12.9686H18.9453L19.1656 15.9827C19.7375 16.1139 20.3469 16.1046 20.8953 15.9827L21.0969 12.9686H21.875C21.875 12.2983 21.8656 11.5343 21.7297 10.9108C21.6547 10.5733 21.5422 10.278 21.3875 10.0671C21.2328 9.85613 21.0406 9.72957 20.7641 9.68738L20.4078 9.63113L20.6328 9.34988C20.8156 9.12488 20.9375 8.79676 20.9375 8.43113C20.9375 7.70926 20.4875 7.17488 19.9953 7.17488H19.9016ZM10.9953 8.06551C9.275 8.06551 7.71875 8.31394 6.62656 8.69832C6.08281 8.89051 5.65625 9.1202 5.39375 9.34051C5.12656 9.56082 5.04219 9.74363 5.04219 9.89363C5.04219 10.0436 5.12656 10.2264 5.39375 10.4468C5.65625 10.6671 6.08281 10.8921 6.62656 11.0889C7.71875 11.4733 9.275 11.7218 10.9953 11.7218C12.7156 11.7218 14.2719 11.4733 15.3641 11.0889C15.9078 10.8921 16.3344 10.6671 16.5969 10.4468C16.8641 10.2264 16.9484 10.0436 16.9484 9.89363C16.9484 9.74363 16.8641 9.56082 16.5969 9.34051C16.3344 9.1202 15.9078 8.89051 15.3641 8.69832C14.2719 8.31394 12.7156 8.06551 10.9953 8.06551ZM6.07344 11.778V13.9249H6.91719V12.0593C6.72031 12.003 6.52812 11.9468 6.34531 11.8811C6.25156 11.8483 6.1625 11.8155 6.07344 11.778ZM15.9172 11.778C15.8281 11.8155 15.7391 11.8483 15.6453 11.8811C15.4625 11.9468 15.2703 12.003 15.0734 12.0593V13.9249H15.9172V11.778ZM10.8969 12.6686C10.4516 12.7249 10.0484 13.2452 10.0484 13.9249C10.0484 14.2999 10.175 14.628 10.3625 14.8577L10.5922 15.1296L10.2406 15.1952C9.99687 15.2421 9.81875 15.3733 9.66406 15.5843C9.50469 15.7999 9.3875 16.0905 9.30781 16.4327C9.15781 17.0468 9.125 17.7968 9.12031 18.4624H9.94062L10.1609 21.4764C10.7328 21.6077 11.3422 21.5983 11.8906 21.4764L12.0922 18.4624H12.8703C12.8703 17.7921 12.8609 17.028 12.725 16.4046C12.65 16.0671 12.5375 15.7718 12.3828 15.5608C12.2281 15.3499 12.0359 15.2233 11.7594 15.1811L11.4031 15.1249L11.6281 14.8436C11.8109 14.6186 11.9328 14.2905 11.9328 13.9249C11.9328 13.203 11.4828 12.6686 10.9906 12.6686H10.8969Z" fill="black"/>
</svg>
